<?xml version="1.0" ?><!DOCTYPE svg  PUBLIC '-//W3C//DTD SVG 1.1//EN'  'http://www.w3.org/Graphics/SVG/1.1/DTD/svg11.dtd'><svg enable-background="new 0 0 512 512" id="Layer_1" version="1.1" viewBox="0 0 512 512" xml:space="preserve" xmlns="http://www.w3.org/2000/svg" xmlns:xlink="http://www.w3.org/1999/xlink"><g><path d="M256.9,507.9c-137.8,0-249-112.5-248.4-252.5C9.1,117.2,120.6,4.8,259.8,6.2   C396,7.7,506.8,119.4,505.5,259.4C504.3,396.8,394,507.5,256.9,507.9z M257.1,25.9C132.9,25.5,29.4,126.6,28.1,254.4   c-1.4,130.5,102.9,232.8,226.8,233.8c125.6,1.1,230.3-100.7,231-229.1C486.5,129.5,384.3,25.9,257.1,25.9z" fill="#6E6E6E"/><path d="M113.1,276.3c0.3-30.8,5.5-55.4,21.8-76.3c18.8-24.1,43.7-36,74.6-33.1c10.2,1,20,4.3,29.1,8.8   c14,7,27.2,6.6,41.1,0.1c12.3-5.8,25.3-9.7,38.9-10.2c28.4-1.2,52,8.9,70.5,30.7c1.9,2.2,2.5,3.7-0.7,5.8   c-50.6,34.1-45.9,107.9,8.6,135.8c2.6,1.3,3.9,2.3,2.7,5.6c-10.7,29.4-26.5,55.6-49.1,77.3c-11.4,10.9-25,14.3-40.6,10.6   c-9.3-2.2-17.8-6.4-26.9-9.3c-19.2-6.2-37.1-1.6-54.9,5.6c-13.3,5.4-26.9,8.7-40.5,1.2c-9.2-5-16.3-12.7-22.9-20.6   C131.7,368.8,115.1,322.8,113.1,276.3z" fill="#6C6C6C"/><path d="M256.1,154.3c0.6-28.8,21.3-57.8,48.2-68.2c6.2-2.4,12.6-4.3,19-5.8c2.8-0.6,4.4-0.2,4.4,3.2   c-0.4,30.2-13,53.9-38.2,70.5c-7.6,5-16.4,7.2-25.5,7.8C256,162.3,256,162.2,256.1,154.3z" fill="#6E6E6E"/></g></svg>