<?xml version="1.0" ?><!DOCTYPE svg  PUBLIC '-//W3C//DTD SVG 1.1//EN'  'http://www.w3.org/Graphics/SVG/1.1/DTD/svg11.dtd'><svg height="512px" style="enable-background:new 0 0 512 512;" version="1.1" viewBox="0 0 512 512" width="512px" xml:space="preserve" xmlns="http://www.w3.org/2000/svg" xmlns:xlink="http://www.w3.org/1999/xlink"><g id="_x33_67_x2C__database_x2C__distributed_x2C__connection_x2C__network_x2C__computer"><g><path d="M332.045,127.928V49.511H194.679v78.417H332.045z M263.532,136.596    c1.72,0,3.286,0.707,4.417,1.838l0.069,0.047c1.096,1.131,1.779,2.686,1.779,4.381c0,1.72-0.707,3.299-1.837,4.43    c-1.132,1.129-2.697,1.837-4.429,1.837c-1.72,0-3.274-0.708-4.404-1.837c-1.155-1.155-1.862-2.71-1.862-4.43    c0-1.743,0.707-3.297,1.838-4.428C260.235,137.303,261.8,136.596,263.532,136.596z M279.656,161.471H247.42l-6.136,23.297h44.497    L279.656,161.471z M465.464,322.169v-78.418H328.11v78.418H465.464z M396.951,330.838c1.72,0,3.287,0.706,4.429,1.837l0.06,0.07    c1.096,1.131,1.778,2.661,1.778,4.357c0,1.72-0.706,3.298-1.825,4.429c-1.143,1.131-2.709,1.838-4.441,1.838    c-1.707,0-3.272-0.707-4.404-1.838c-1.154-1.154-1.85-2.709-1.85-4.429c0-1.743,0.695-3.298,1.838-4.428    C393.654,331.544,395.231,330.838,396.951,330.838z M472.86,236.449c-1.096-1.107-2.603-1.791-4.275-1.791H325.318    c-1.648,0-3.167,0.707-4.264,1.791c-1.082,1.083-1.766,2.615-1.766,4.264v103.174c0,1.649,0.671,3.156,1.756,4.24    c1.106,1.107,2.625,1.79,4.273,1.79h143.267c1.66,0,3.18-0.683,4.265-1.79c1.095-1.084,1.777-2.591,1.777-4.24V240.713    C474.627,239.041,473.955,237.532,472.86,236.449z M413.075,355.712h-32.236l-6.124,23.297h44.484L413.075,355.712z     M198.624,322.169v-78.418H61.259v78.418H198.624z M130.112,330.838c1.719,0,3.287,0.706,4.417,1.837l0.072,0.07    c1.095,1.131,1.778,2.661,1.778,4.357c0,1.72-0.706,3.298-1.837,4.429c-1.13,1.131-2.697,1.838-4.429,1.838    c-1.72,0-3.273-0.707-4.405-1.838c-1.154-1.154-1.86-2.709-1.86-4.429c0-1.743,0.706-3.298,1.837-4.428    C126.814,331.544,128.381,330.838,130.112,330.838z M206.021,236.449c-1.095-1.107-2.603-1.791-4.275-1.791H58.479    c-1.649,0-3.167,0.707-4.264,1.791c-1.095,1.083-1.778,2.615-1.778,4.264v103.174c0,1.649,0.683,3.156,1.767,4.24    c1.107,1.107,2.615,1.79,4.274,1.79h143.267c1.66,0,3.18-0.683,4.264-1.79c1.095-1.084,1.778-2.591,1.778-4.24V240.713    C207.788,239.041,207.105,237.532,206.021,236.449z M146.236,355.712H114l-6.136,23.297h44.497L146.236,355.712z M247.103,106.633    c-1.602,0-2.897-1.296-2.897-2.896c0-1.578,1.295-2.898,2.897-2.898h78.099c1.602,0,2.896,1.32,2.896,2.898    c0,1.601-1.295,2.896-2.896,2.896H247.103z M247.103,120.389c-1.602,0-2.897-1.318-2.897-2.896c0-1.602,1.295-2.896,2.897-2.896    h78.099c1.602,0,2.896,1.295,2.896,2.896c0,1.578-1.295,2.896-2.896,2.896H247.103z M176.718,83.054    c0,1.578-1.297,2.897-2.897,2.897c-1.59,0-2.897-1.319-2.897-2.897V38.839c0-3.532,1.447-6.736,3.779-9.068    s5.547-3.769,9.069-3.769h25.405c1.59,0,2.897,1.295,2.897,2.873c0,1.602-1.307,2.898-2.897,2.898h-25.405    c-1.942,0-3.709,0.801-4.982,2.072c-1.283,1.271-2.072,3.039-2.072,4.993V83.054z M380.521,300.874    c-1.59,0-2.896-1.296-2.896-2.873c0-1.603,1.307-2.897,2.896-2.897h78.099c1.603,0,2.898,1.295,2.898,2.897    c0,1.577-1.296,2.873-2.898,2.873H380.521z M380.521,314.631c-1.59,0-2.896-1.295-2.896-2.897s1.307-2.897,2.896-2.897h78.099    c1.603,0,2.898,1.295,2.898,2.897s-1.296,2.897-2.898,2.897H380.521z M310.148,277.295c0,1.602-1.307,2.896-2.896,2.896    c-1.603,0-2.897-1.295-2.897-2.896V233.08c0-3.533,1.438-6.736,3.77-9.068c2.343-2.332,5.56-3.77,9.068-3.77h25.405    c1.601,0,2.897,1.297,2.897,2.897c0,1.579-1.297,2.897-2.897,2.897h-25.405c-1.944,0-3.71,0.777-4.972,2.049    c-1.282,1.272-2.072,3.039-2.072,4.994V277.295z M113.552,300.874c-1.601,0-2.897-1.296-2.897-2.873    c0-1.603,1.297-2.897,2.897-2.897h78.1c1.601,0,2.897,1.295,2.897,2.897c0,1.577-1.296,2.873-2.897,2.873H113.552z     M113.552,314.631c-1.601,0-2.897-1.295-2.897-2.897s1.297-2.897,2.897-2.897h78.1c1.601,0,2.897,1.295,2.897,2.897    s-1.296,2.897-2.897,2.897H113.552z M43.167,277.295c0,1.602-1.295,2.896-2.897,2.896c-1.59,0-2.897-1.295-2.897-2.896V233.08    c0-3.533,1.449-6.736,3.781-9.068c2.333-2.332,5.547-3.77,9.069-3.77h25.405c1.602,0,2.897,1.297,2.897,2.897    c0,1.579-1.295,2.897-2.897,2.897H50.223c-1.944,0-3.709,0.777-4.982,2.049c-1.272,1.272-2.074,3.039-2.074,4.994V277.295z     M285.238,433.94h108.593v-41.505h2.815h-45.782v-7.633h20.023h0.07h72.08v7.633h-46.239h2.814v44.402    c0,1.602-1.295,2.897-2.897,2.897H285.238c-0.635,4.853-2.885,9.211-6.172,12.484c-3.934,3.935-9.386,6.384-15.394,6.384    c-5.995,0-11.436-2.449-15.38-6.384c-3.299-3.298-5.549-7.655-6.196-12.484H127.615c-1.601,0-2.897-1.296-2.897-2.897v-44.402    h2.827h-43.52v-7.633h20.023h0.07h72.08v7.633h-48.512h2.827v41.505h111.583c0.647-4.853,2.897-9.21,6.184-12.484    c3.297-3.298,7.644-5.536,12.496-6.195V198.194h2.816h-46.146v-7.632h20.022h0.072h72.08v7.632h-45.875h2.827v217.066    c4.84,0.659,9.187,2.897,12.483,6.195C282.354,424.754,284.604,429.088,285.238,433.94z M105.343,472.172    c-1.59,0-2.897-1.296-2.897-2.897s1.307-2.897,2.897-2.897h227.514c1.59,0,2.896,1.296,2.896,2.897s-1.307,2.897-2.896,2.897    H105.343z M238.564,485.999c-1.592,0-2.887-1.296-2.887-2.897c0-1.578,1.295-2.897,2.887-2.897h157.434    c1.603,0,2.897,1.319,2.897,2.897c0,1.602-1.295,2.897-2.897,2.897H238.564z M412.11,485.999c-1.59,0-2.897-1.296-2.897-2.897    c0-1.578,1.308-2.897,2.897-2.897h19.682c1.601,0,2.896,1.319,2.896,2.897c0,1.602-1.296,2.897-2.896,2.897H412.11z     M96.38,485.575c-1.59,0-2.885-1.295-2.885-2.874c0-1.602,1.295-2.897,2.885-2.897h74.602c1.602,0,2.897,1.296,2.897,2.897    c0,1.579-1.295,2.874-2.897,2.874H96.38z M339.441,42.185c-1.096-1.083-2.604-1.767-4.277-1.767H191.9    c-1.649,0-3.169,0.684-4.264,1.79c-1.095,1.084-1.779,2.591-1.779,4.263v103.152c0,1.672,0.685,3.18,1.767,4.263    c1.107,1.107,2.615,1.791,4.276,1.791h143.264c1.662,0,3.182-0.684,4.265-1.791c1.095-1.083,1.779-2.591,1.779-4.263V46.471    C341.208,44.799,340.523,43.292,339.441,42.185z" style="fill-rule:evenodd;clip-rule:evenodd;"/></g></g><g id="Layer_1"/></svg>