<?xml version="1.0" ?><!DOCTYPE svg  PUBLIC '-//W3C//DTD SVG 1.1//EN'  'http://www.w3.org/Graphics/SVG/1.1/DTD/svg11.dtd'><svg height="100%" style="fill-rule:evenodd;clip-rule:evenodd;stroke-linejoin:round;stroke-miterlimit:1.41421;" version="1.1" viewBox="0 0 101 126" width="100%" xml:space="preserve" xmlns="http://www.w3.org/2000/svg" xmlns:serif="http://www.serif.com/" xmlns:xlink="http://www.w3.org/1999/xlink"><path d="M72.414,48.757c8.3,0 15,-6.7 15,-15c0,-8.3 -6.7,-15 -15,-15c-8.3,0 -15,6.7 -15,15c0,2.3 0.5,4.5 1.5,6.4l-21.5,12c-2.6,-2.2 -6,-3.6 -9.7,-3.6c-8.3,0 -15,6.7 -15,15c0,8.3 6.7,15 15,15c3.7,0 7.1,-1.4 9.7,-3.6l21,11.6c-0.6,1.7 -1,3.5 -1,5.3c0,8.3 6.7,15 15,15c8.3,0 15,-6.7 15,-15c0,-8.3 -6.7,-15 -15,-15c-3.5,0 -6.6,1.2 -9.2,3.2l-21.3,-11.7c0.5,-1.5 0.8,-3.1 0.8,-4.7c0,-1.7 -0.3,-3.3 -0.8,-4.8l22.4,-12.5c2.3,1.5 5.1,2.4 8.1,2.4Z" style="fill:#108ec0;fill-rule:nonzero;"/><clipPath id="_clip1"><path clip-rule="nonzero" d="M72.414,48.757c8.3,0 15,-6.7 15,-15c0,-8.3 -6.7,-15 -15,-15c-8.3,0 -15,6.7 -15,15c0,2.3 0.5,4.5 1.5,6.4l-21.5,12c-2.6,-2.2 -6,-3.6 -9.7,-3.6c-8.3,0 -15,6.7 -15,15c0,8.3 6.7,15 15,15c3.7,0 7.1,-1.4 9.7,-3.6l21,11.6c-0.6,1.7 -1,3.5 -1,5.3c0,8.3 6.7,15 15,15c8.3,0 15,-6.7 15,-15c0,-8.3 -6.7,-15 -15,-15c-3.5,0 -6.6,1.2 -9.2,3.2l-21.3,-11.7c0.5,-1.5 0.8,-3.1 0.8,-4.7c0,-1.7 -0.3,-3.3 -0.8,-4.8l22.4,-12.5c2.3,1.5 5.1,2.4 8.1,2.4Z"/></clipPath><g clip-path="url(#_clip1)"><path d="M90.064,17.757l-33,0c0,0 0,7.256 0,14.809c0,9.246 7.495,16.741 16.741,16.741c8.169,0 16.259,0 16.259,0l0,-31.55Z" style="fill:#15bcff;"/><path d="M88.614,109.032l0,-33c0,0 -6.925,0 -14.286,0c-9.535,0 -17.264,7.729 -17.264,17.264c0,7.988 0,15.736 0,15.736l31.55,0Z" style="fill:#15bcff;"/><path d="M10.508,47.589l16.614,0.495c4.3,0.128 8.373,1.96 11.322,5.092c2.95,3.132 4.533,7.308 4.403,11.608c0,0.001 0,0.002 0,0.002l-0.049,0.619c-0.579,3.448 -2.274,6.624 -4.843,9.043c-3.132,2.95 -7.308,4.533 -11.608,4.403c-0.001,0 -0.001,0 -0.002,0c-4.45,-0.135 -8.664,-2.032 -11.715,-5.275c-3.05,-3.243 -4.688,-7.565 -4.551,-12.015l0.429,-13.972Z" style="fill:#15bcff;"/></g><path d="M18.064,56.27c-0.882,4.812 -0.889,9.769 0,14.874c-1.481,-2.105 -2.35,-4.67 -2.35,-7.437c0,-2.767 0.869,-5.332 2.35,-7.437Z" style="fill:#fff;fill-opacity:0.5;"/><path d="M62.673,28.484l-1.353,-1.201c-0.739,1.339 -1.251,2.833 -1.478,4.436c-0.388,2.74 0.114,5.402 1.285,7.693c-0.377,-4.182 -0.023,-7.946 1.546,-10.928Z" style="fill:#fff;fill-opacity:0.5;"/><path d="M61.492,98.308l1.283,-1.266c-1.491,-2.658 -2.126,-6.012 -2.219,-9.764c-0.901,2.41 -1.095,5.112 -0.397,7.789c0.304,1.164 0.757,2.249 1.333,3.241Z" style="fill:#fff;fill-opacity:0.5;"/></svg>