<?xml version="1.0" ?><svg enable-background="new 0 0 1080 1080" id="katman_1" version="1.1" viewBox="0 0 1080 1080" xml:space="preserve" xmlns="http://www.w3.org/2000/svg" xmlns:xlink="http://www.w3.org/1999/xlink"><g><path d="M189,891.1c-22.9-22.4-43-47.3-60.8-73.9C87.8,757,61,691.3,50.4,619.7C28.3,470.3,64.6,336.3,161.5,220.2   c72.9-87.3,166.4-142.1,277.7-165.8c50.7-10.8,102-13.1,153.6-7.6c90.3,9.6,171.7,41.7,244.6,95.7c19.8,14.7,38.6,30.6,55.6,48.5   c0.5,2.5-1.5,3.5-2.8,4.9c-5.9,6.6-12.9,12-19.2,18.2c-51.2,51.2-102.4,102.4-153.6,153.6c-5.5,5.5-11.7,10.4-17.2,15.9   c-0.8,0.5-1.7,1-2.7,1.3c-30.7,4.2-57.9,16.5-81.3,36.6c-16.9,14.5-30.3,31.7-39.8,51.9c-6.7,14.1-11.2,28.8-13.6,44.2   c-0.4,1.4-0.7,2.9-1.3,4.2c-13.4,10.7-24.5,23.8-37,35.6c-1.4,1.3-2.5,3.9-5.3,2.1c-1.1-2.6-0.8-5.3-0.7-7.9   c1-16.9-0.2-33.5-4.7-49.9c-6.8-25.2-18.7-47.5-36.5-66.9c-26.3-28.7-58.9-45.1-97.3-50.2c-28.1-3.7-55,0.9-81.1,11.7   c-18.4,7.6-34.7,18.7-48.6,32.7c-25.1,25.4-40.5,55.8-45.4,91.4c-6.1,45.1,5.9,85.3,33.9,120.5c26.3,33,61.2,51.7,103,57.4   c12.1,1.7,24.2,1.5,36.3,0.5c0.5,0.1,1,0.3,1.4,0.6c1.9,2.5-0.3,4-1.6,5.5c-3.9,4.5-8.9,7.9-13.2,12.2   c-48.5,48.7-97.2,97.2-145.7,145.9c-8.8,8.8-18.3,16.9-27,25.9C191.3,889.9,190.4,890.9,189,891.1z" fill="#0061DC"/><path d="M519.8,560.2c10.6-10.5,21.3-20.9,31.9-31.5c2.7-2.7,5.6-5.2,9.1-6.7c1.3,0.9,1.2,2.3,1.1,3.6   c-2.5,28.5,1.6,55.8,13.6,81.8c6.9,15.1,16.1,28.7,27.4,41c12.8,13.9,27.4,25.3,44.2,33.9c16.8,8.6,34.6,13.9,53.3,16.2   c31.3,3.7,61.2-1.2,89.2-15.8c47.4-24.7,75.8-63.7,85.2-116.5c1.2-6.9,1.6-13.9,2.8-20.8c1.4-8.2-1.3-16.2-2.2-24.3   c-3.2-26.1-12.3-50.1-28-71.3c-7.4-10-14.8-20.2-25.3-27.4c-1.4-1-2.4-2.3-2.2-4.2c2.7-2.2,4.7,0.1,6.7,1.2   c16.5,9.7,33,19.4,49.5,29.1c52,30.4,104,60.9,156,91.4c1.9,1.1,3.8,2.2,5,4.1c0.5,14.4-0.3,28.7-1.6,43c-1.3,13.8-3,27.6-5.3,41.3   c-2.7,15.9-6.5,31.6-10.8,47.2c-9.6,34.7-23.2,67.7-40,99.5c-12.2,23.1-26.4,44.9-42.2,65.7c-12,15.8-25.1,30.7-38.9,45.1   c-21.5,22.5-45.1,42.2-70.2,60.4c-25.3,18.3-52.3,33.6-80.6,46.6c-29.3,13.5-59.8,23.9-91.3,31.2c-17.7,4.1-35.6,7.4-53.6,9.7   c-8.9,1.1-18,1.7-27,2.4c-19.1,1.5-38.2,0.4-57.3,0.7c-8.7,0.1-17.4-0.7-26-2.1c-2.8-1.3-3-4.3-3.8-6.7   c-14.9-44.9-30-89.7-44.7-134.7c-13.4-41-27.4-81.8-40.8-122.8c-7-21.4-14.1-42.7-21.1-64c-0.7-2.1-1.3-4.1-1-6.3   c1.1-2,3.2-2.2,5.2-2.5c32.6-5,61-19.1,84.7-41.8c21.1-20.2,35.7-44.6,43.3-73.1c1.7-6.4,3.2-12.9,4.1-19.5   C518,562,518.4,560.8,519.8,560.2z" fill="#022D64"/><path d="M1036.8,544c-17.8-10.3-35.6-20.7-53.3-31c-24.8-14.5-49.6-29-74.4-43.5c-23.5-13.8-46.9-27.7-70.5-41.3   c-6.1-3.5-11.7-8.2-18.7-10.1c-1.8,0.6-3.2-0.2-4.5-1.3c-14.5-11.7-30.8-20.3-48.5-26.1c-5.8-1.9-12-2.8-17.9-4.4   c-1-0.1-1.9-0.2-2.9-0.5c-1.2-0.4-2.5-0.5-3.7-0.6c-1.1-0.1-2.2-0.2-3.3-0.5c-11.3-0.9-22.6-2.2-34-0.5c-1.8,0.3-3.7,0.2-5-1.3   c3.7-5.2,9.1-8.7,13.6-13.1c52.9-52.9,105.8-105.8,158.8-158.5c6.8-6.8,14.3-12.9,20.6-20.2c24.3,23.9,45.4,50.4,63.9,78.9   c35.2,54.2,59.1,112.9,71.1,176.4C1034.3,478.7,1037.6,511.2,1036.8,544z" fill="#02469B"/><path d="M381.1,700.1c6.4,19.6,12.8,39.1,19.3,58.7c16.5,49.8,33,99.6,49.5,149.4c13.7,41.3,27.3,82.6,41,123.9   c0.3,0.9,0.7,1.8,1.1,2.8c-94.1-9.5-178.8-43-254-100.5c-17.3-13.2-33.9-27.4-49-43.2c5.5-6.8,12.4-12.1,18.5-18.2   c53.1-52.9,106.2-106,159.2-159c4.5-4.5,10.4-7.8,13.5-13.7C380.4,699.8,380.8,699.8,381.1,700.1z" fill="#02469B"/><path d="M519.8,560.2c-0.3,0.9-0.7,1.9-1,2.8c-0.8,2.3-2.5,3.9-4.2,5.5c-36.7,36.7-73.4,73.6-110.3,110.1   c-6.1,6.1-12.7,11.8-18.8,17.9c-1.8,1.8-4,3-6.5,3.2c-77,9.7-155.3-42.2-173.3-125.3c-14.7-68,18.8-141.4,82.8-174.7   c90.7-47.2,203.3,4.1,227.4,103.9C520.5,522.4,521,541.2,519.8,560.2z" fill="#FEFEFE"/><path d="M749,385.2c21.5,3.9,41.1,12,59,24.5c4,2.8,7.9,5.6,11.9,8.4c1.3,3.3,4.8,4.3,7.2,6.5   c26.9,25.8,43.4,56.8,49.1,93.7c13.3,86.1-46.9,162.8-123.9,179.2C668.2,715.4,583.2,662,564,578.1c-4.2-18.5-4.9-37.2-3.1-56   c0.5-1.4-0.2-3,1-4.3c4.9-4.2,9.8-8.4,14.3-13c38.4-38.5,76.9-77,115.4-115.5c2-2,4-3.9,6.4-5.4c0.7-0.3,1.4-0.6,2.1-0.9   c11.8-1,23.5-1.9,35.3,0.1c1.6,0.3,3.4-0.1,4.8,0.9c-0.4,0.6-0.9,0.8-1.5,0.2c0.3,0.3,0.6,0.4,1.1,0.4c1.1-0.1,2.2,0.3,3.2-0.4   c1.2-0.1,2.4-0.1,3.4,0.7c-0.4,0.6-0.8,0.9-1.3,0.1c0.1,0.7,0.7,0.6,1.1,0.6C747.1,385.5,748.1,385.7,749,385.2z" fill="#DCDCDC"/><path d="M698,383.9c-1.2,1.4-2.2,2.9-3.5,4.2c-40.8,40.8-81.6,81.7-122.5,122.4c-2.9,2.9-5.6,6.5-10.2,7.3   c3.5-26.4,13.6-50.2,29.6-71.4c25.6-34,59.6-54.7,101.7-62.1C694.6,384,696.3,384,698,383.9z" fill="#FEFEFE"/><path d="M379.1,699.8c2.5-1.1,4.4-2.8,6.3-4.6c44.4-42.5,87.2-86.6,130.8-129.9c0.8-0.8,1.7-1.5,2.6-2.3   c-1.5,15.5-5.9,30.3-12.6,44.3c-24.7,51.6-65.3,82.4-121.8,91.9c-1.1,0.2-2.2,0.6-3.4,0.9c0,0-0.5-0.1-0.5-0.1s-0.4,0.2-0.4,0.2   C379.8,700,379.4,699.9,379.1,699.8z" fill="#DCDCDC"/><path d="M743,384.1c-1,1.1-2.3,0.8-3.5,0.8c-0.2,0-0.3-0.3-0.5-0.5c0.4-0.2,0.8-0.4,1.2-0.5   C741.1,384,742.1,384.1,743,384.1z" fill="#E6E6E7"/><path d="M749,385.2c-0.8,1-2,0.9-3.1,0.8c-0.4,0-1.1,0.1-0.8-0.6c0.1-0.3,0.8-0.4,1.2-0.5   C747.2,384.9,748.1,385,749,385.2z" fill="#E5E5E6"/></g></svg>